<mxfile host="app.diagrams.net" agent="Mozilla/5.0 (Windows NT 10.0; Win64; x64) AppleWebKit/537.36 (KHTML, like Gecko) Chrome/141.0.0.0 Safari/537.36 Edg/141.0.0.0" version="28.2.5">
  <diagram name="Página-1" id="T7xcyOxM6UO0_UGkcV9B">
    <mxGraphModel dx="1418" dy="820" grid="1" gridSize="10" guides="1" tooltips="1" connect="1" arrows="1" fold="1" page="1" pageScale="1" pageWidth="827" pageHeight="1169" math="0" shadow="0">
      <root>
        <mxCell id="0" />
        <mxCell id="1" parent="0" />
        <mxCell id="kEwRPhcbVREHkXMxWT2N-1" value="Fim" style="ellipse;whiteSpace=wrap;html=1;" vertex="1" parent="1">
          <mxGeometry x="730" y="610" width="60" height="50" as="geometry" />
        </mxCell>
        <mxCell id="kEwRPhcbVREHkXMxWT2N-2" value="" style="edgeStyle=orthogonalEdgeStyle;rounded=0;orthogonalLoop=1;jettySize=auto;html=1;" edge="1" parent="1" source="kEwRPhcbVREHkXMxWT2N-3" target="kEwRPhcbVREHkXMxWT2N-5">
          <mxGeometry relative="1" as="geometry" />
        </mxCell>
        <mxCell id="kEwRPhcbVREHkXMxWT2N-3" value="Ínicio" style="ellipse;whiteSpace=wrap;html=1;" vertex="1" parent="1">
          <mxGeometry x="105" y="30" width="120" height="80" as="geometry" />
        </mxCell>
        <mxCell id="kEwRPhcbVREHkXMxWT2N-4" value="" style="edgeStyle=orthogonalEdgeStyle;rounded=0;orthogonalLoop=1;jettySize=auto;html=1;" edge="1" parent="1" source="kEwRPhcbVREHkXMxWT2N-5" target="kEwRPhcbVREHkXMxWT2N-7">
          <mxGeometry relative="1" as="geometry" />
        </mxCell>
        <mxCell id="kEwRPhcbVREHkXMxWT2N-5" value="contador = 0&lt;div&gt;D = 0&lt;/div&gt;" style="rounded=0;whiteSpace=wrap;html=1;" vertex="1" parent="1">
          <mxGeometry x="105" y="140" width="120" height="60" as="geometry" />
        </mxCell>
        <mxCell id="kEwRPhcbVREHkXMxWT2N-6" value="" style="edgeStyle=orthogonalEdgeStyle;rounded=0;orthogonalLoop=1;jettySize=auto;html=1;" edge="1" parent="1" source="kEwRPhcbVREHkXMxWT2N-7" target="kEwRPhcbVREHkXMxWT2N-9">
          <mxGeometry relative="1" as="geometry" />
        </mxCell>
        <mxCell id="kEwRPhcbVREHkXMxWT2N-7" value="Ler N" style="shape=parallelogram;perimeter=parallelogramPerimeter;whiteSpace=wrap;html=1;fixedSize=1;" vertex="1" parent="1">
          <mxGeometry x="105" y="240" width="120" height="60" as="geometry" />
        </mxCell>
        <mxCell id="kEwRPhcbVREHkXMxWT2N-8" value="" style="edgeStyle=orthogonalEdgeStyle;rounded=0;orthogonalLoop=1;jettySize=auto;html=1;" edge="1" parent="1" source="kEwRPhcbVREHkXMxWT2N-9" target="kEwRPhcbVREHkXMxWT2N-14">
          <mxGeometry relative="1" as="geometry" />
        </mxCell>
        <mxCell id="kEwRPhcbVREHkXMxWT2N-9" value="D = N" style="rounded=0;whiteSpace=wrap;html=1;" vertex="1" parent="1">
          <mxGeometry x="105" y="340" width="120" height="60" as="geometry" />
        </mxCell>
        <mxCell id="kEwRPhcbVREHkXMxWT2N-10" value="" style="edgeStyle=orthogonalEdgeStyle;rounded=0;orthogonalLoop=1;jettySize=auto;html=1;" edge="1" parent="1" source="kEwRPhcbVREHkXMxWT2N-14" target="kEwRPhcbVREHkXMxWT2N-16">
          <mxGeometry relative="1" as="geometry" />
        </mxCell>
        <mxCell id="kEwRPhcbVREHkXMxWT2N-11" value="Sim" style="edgeLabel;html=1;align=center;verticalAlign=middle;resizable=0;points=[];" vertex="1" connectable="0" parent="kEwRPhcbVREHkXMxWT2N-10">
          <mxGeometry x="-0.5556" y="-1" relative="1" as="geometry">
            <mxPoint as="offset" />
          </mxGeometry>
        </mxCell>
        <mxCell id="kEwRPhcbVREHkXMxWT2N-12" value="" style="edgeStyle=orthogonalEdgeStyle;rounded=0;orthogonalLoop=1;jettySize=auto;html=1;" edge="1" parent="1" source="kEwRPhcbVREHkXMxWT2N-14" target="kEwRPhcbVREHkXMxWT2N-18">
          <mxGeometry relative="1" as="geometry" />
        </mxCell>
        <mxCell id="kEwRPhcbVREHkXMxWT2N-13" value="Não" style="edgeLabel;html=1;align=center;verticalAlign=middle;resizable=0;points=[];" vertex="1" connectable="0" parent="kEwRPhcbVREHkXMxWT2N-12">
          <mxGeometry x="-0.3818" y="1" relative="1" as="geometry">
            <mxPoint as="offset" />
          </mxGeometry>
        </mxCell>
        <mxCell id="kEwRPhcbVREHkXMxWT2N-14" value="N MOD D == 0" style="rhombus;whiteSpace=wrap;html=1;" vertex="1" parent="1">
          <mxGeometry x="105" y="430" width="120" height="80" as="geometry" />
        </mxCell>
        <mxCell id="kEwRPhcbVREHkXMxWT2N-15" value="" style="edgeStyle=orthogonalEdgeStyle;rounded=0;orthogonalLoop=1;jettySize=auto;html=1;" edge="1" parent="1" source="kEwRPhcbVREHkXMxWT2N-16" target="kEwRPhcbVREHkXMxWT2N-23">
          <mxGeometry relative="1" as="geometry" />
        </mxCell>
        <mxCell id="kEwRPhcbVREHkXMxWT2N-16" value="contador = contador + 1&lt;div&gt;D = D - 1&lt;/div&gt;" style="rounded=0;whiteSpace=wrap;html=1;" vertex="1" parent="1">
          <mxGeometry x="85" y="570" width="160" height="60" as="geometry" />
        </mxCell>
        <mxCell id="kEwRPhcbVREHkXMxWT2N-17" value="" style="edgeStyle=orthogonalEdgeStyle;rounded=0;orthogonalLoop=1;jettySize=auto;html=1;" edge="1" parent="1" source="kEwRPhcbVREHkXMxWT2N-18" target="kEwRPhcbVREHkXMxWT2N-23">
          <mxGeometry relative="1" as="geometry" />
        </mxCell>
        <mxCell id="kEwRPhcbVREHkXMxWT2N-18" value="D = D - 1" style="rounded=0;whiteSpace=wrap;html=1;" vertex="1" parent="1">
          <mxGeometry x="280" y="440" width="120" height="60" as="geometry" />
        </mxCell>
        <mxCell id="kEwRPhcbVREHkXMxWT2N-19" style="edgeStyle=orthogonalEdgeStyle;rounded=0;orthogonalLoop=1;jettySize=auto;html=1;entryX=0;entryY=0.5;entryDx=0;entryDy=0;" edge="1" parent="1" source="kEwRPhcbVREHkXMxWT2N-23" target="kEwRPhcbVREHkXMxWT2N-14">
          <mxGeometry relative="1" as="geometry">
            <Array as="points">
              <mxPoint x="340" y="670" />
              <mxPoint x="10" y="670" />
              <mxPoint x="10" y="470" />
            </Array>
          </mxGeometry>
        </mxCell>
        <mxCell id="kEwRPhcbVREHkXMxWT2N-20" value="Não" style="edgeLabel;html=1;align=center;verticalAlign=middle;resizable=0;points=[];" vertex="1" connectable="0" parent="kEwRPhcbVREHkXMxWT2N-19">
          <mxGeometry x="-0.6336" relative="1" as="geometry">
            <mxPoint as="offset" />
          </mxGeometry>
        </mxCell>
        <mxCell id="kEwRPhcbVREHkXMxWT2N-21" value="" style="edgeStyle=orthogonalEdgeStyle;rounded=0;orthogonalLoop=1;jettySize=auto;html=1;" edge="1" parent="1" source="kEwRPhcbVREHkXMxWT2N-23" target="kEwRPhcbVREHkXMxWT2N-27">
          <mxGeometry relative="1" as="geometry" />
        </mxCell>
        <mxCell id="kEwRPhcbVREHkXMxWT2N-22" value="Sim" style="edgeLabel;html=1;align=center;verticalAlign=middle;resizable=0;points=[];" vertex="1" connectable="0" parent="kEwRPhcbVREHkXMxWT2N-21">
          <mxGeometry x="-0.05" y="1" relative="1" as="geometry">
            <mxPoint as="offset" />
          </mxGeometry>
        </mxCell>
        <mxCell id="kEwRPhcbVREHkXMxWT2N-23" value="D == 0" style="rhombus;whiteSpace=wrap;html=1;" vertex="1" parent="1">
          <mxGeometry x="300" y="560" width="80" height="80" as="geometry" />
        </mxCell>
        <mxCell id="kEwRPhcbVREHkXMxWT2N-24" value="" style="edgeStyle=orthogonalEdgeStyle;rounded=0;orthogonalLoop=1;jettySize=auto;html=1;" edge="1" parent="1" source="kEwRPhcbVREHkXMxWT2N-27" target="kEwRPhcbVREHkXMxWT2N-29">
          <mxGeometry relative="1" as="geometry" />
        </mxCell>
        <mxCell id="kEwRPhcbVREHkXMxWT2N-25" value="Sim" style="edgeLabel;html=1;align=center;verticalAlign=middle;resizable=0;points=[];" vertex="1" connectable="0" parent="kEwRPhcbVREHkXMxWT2N-24">
          <mxGeometry x="-0.2667" y="1" relative="1" as="geometry">
            <mxPoint as="offset" />
          </mxGeometry>
        </mxCell>
        <mxCell id="kEwRPhcbVREHkXMxWT2N-26" style="edgeStyle=orthogonalEdgeStyle;rounded=0;orthogonalLoop=1;jettySize=auto;html=1;entryX=0;entryY=0.5;entryDx=0;entryDy=0;" edge="1" parent="1" source="kEwRPhcbVREHkXMxWT2N-27" target="kEwRPhcbVREHkXMxWT2N-30">
          <mxGeometry relative="1" as="geometry">
            <Array as="points">
              <mxPoint x="460" y="700" />
            </Array>
          </mxGeometry>
        </mxCell>
        <mxCell id="kEwRPhcbVREHkXMxWT2N-27" value="Cont == 2" style="rhombus;whiteSpace=wrap;html=1;" vertex="1" parent="1">
          <mxGeometry x="420" y="560" width="80" height="80" as="geometry" />
        </mxCell>
        <mxCell id="kEwRPhcbVREHkXMxWT2N-28" value="" style="edgeStyle=orthogonalEdgeStyle;rounded=0;orthogonalLoop=1;jettySize=auto;html=1;" edge="1" parent="1" source="kEwRPhcbVREHkXMxWT2N-29" target="kEwRPhcbVREHkXMxWT2N-1">
          <mxGeometry relative="1" as="geometry" />
        </mxCell>
        <mxCell id="kEwRPhcbVREHkXMxWT2N-29" value="Escrever &quot; O número é primo&quot;" style="shape=parallelogram;perimeter=parallelogramPerimeter;whiteSpace=wrap;html=1;fixedSize=1;" vertex="1" parent="1">
          <mxGeometry x="530" y="570" width="120" height="60" as="geometry" />
        </mxCell>
        <mxCell id="kEwRPhcbVREHkXMxWT2N-30" value="Escrever &quot; O número não é primo&quot;" style="shape=parallelogram;perimeter=parallelogramPerimeter;whiteSpace=wrap;html=1;fixedSize=1;" vertex="1" parent="1">
          <mxGeometry x="520" y="670" width="120" height="60" as="geometry" />
        </mxCell>
        <mxCell id="kEwRPhcbVREHkXMxWT2N-31" style="edgeStyle=orthogonalEdgeStyle;rounded=0;orthogonalLoop=1;jettySize=auto;html=1;" edge="1" parent="1" source="kEwRPhcbVREHkXMxWT2N-30">
          <mxGeometry relative="1" as="geometry">
            <mxPoint x="760" y="654" as="targetPoint" />
          </mxGeometry>
        </mxCell>
      </root>
    </mxGraphModel>
  </diagram>
</mxfile>
